<svg width="39" height="39" viewBox="0 0 39 39" fill="none" xmlns="http://www.w3.org/2000/svg">
<path fill-rule="evenodd" clip-rule="evenodd" d="M9.11007 29.8168H15.7359C16.1932 29.8168 16.5642 29.4458 16.5642 28.9885C16.5642 28.5312 16.1932 28.1602 15.7359 28.1602H9.11007C8.65279 28.1602 8.28174 28.5312 8.28174 28.9885C8.28174 29.4458 8.65279 29.8168 9.11007 29.8168Z" fill="#F55D3E"/>
<path fill-rule="evenodd" clip-rule="evenodd" d="M9.11007 13.2521H12.4231C12.8801 13.2521 13.2512 12.881 13.2512 12.424C13.2512 11.9668 12.8801 11.5957 12.4231 11.5957H9.11007C8.65279 11.5957 8.28174 11.9668 8.28174 12.424C8.28174 12.881 8.65279 13.2521 9.11007 13.2521Z" fill="#F55D3E"/>
<path fill-rule="evenodd" clip-rule="evenodd" d="M15.7358 13.2521H25.6747C26.1319 13.2521 26.503 12.881 26.503 12.424C26.503 11.9668 26.1319 11.5957 25.6747 11.5957H15.7358C15.2788 11.5957 14.9077 11.9668 14.9077 12.424C14.9077 12.881 15.2788 13.2521 15.7358 13.2521Z" fill="#F55D3E"/>
<path fill-rule="evenodd" clip-rule="evenodd" d="M9.11007 16.5665H24.0184C24.4757 16.5665 24.8467 16.1955 24.8467 15.7382C24.8467 15.2812 24.4757 14.9102 24.0184 14.9102H9.11007C8.65279 14.9102 8.28174 15.2812 8.28174 15.7382C8.28174 16.1955 8.65279 16.5665 9.11007 16.5665Z" fill="#F55D3E"/>
<path fill-rule="evenodd" clip-rule="evenodd" d="M9.11007 19.8793H20.7052C21.1625 19.8793 21.5335 19.5083 21.5335 19.051C21.5335 18.5937 21.1625 18.2227 20.7052 18.2227H9.11007C8.65279 18.2227 8.28174 18.5937 8.28174 19.051C8.28174 19.5083 8.65279 19.8793 9.11007 19.8793V19.8793Z" fill="#F55D3E"/>
<path fill-rule="evenodd" clip-rule="evenodd" d="M9.11007 23.1915H17.3927C17.8497 23.1915 18.2208 22.8205 18.2208 22.3635C18.2208 21.9062 17.8497 21.5352 17.3927 21.5352H9.11007C8.65279 21.5352 8.28174 21.9062 8.28174 22.3635C8.28174 22.8205 8.65279 23.1915 9.11007 23.1915Z" fill="#F55D3E"/>
<path fill-rule="evenodd" clip-rule="evenodd" d="M31.4728 21.0491V32.3014C31.4728 32.9606 31.211 33.5926 30.7448 34.0579C30.2792 34.5243 29.6472 34.7861 28.988 34.7861H28.1597V35.6142C28.1597 36.9866 27.0474 38.0989 25.675 38.0989H2.48472C1.1123 38.0989 0 36.9866 0 35.6142V5.79749C0 4.42508 1.1123 3.31277 2.48472 3.31277H3.31277V2.48472C3.31277 1.82527 3.57456 1.19331 4.04101 0.727952C4.50634 0.261513 5.13833 0 5.7975 0H23.3332C23.9916 0 24.6236 0.261506 25.09 0.727952C26.3149 1.952 29.5209 5.15828 30.7452 6.38318C31.2114 6.84934 31.4732 7.48135 31.4732 8.13995V12.0806L33.0295 10.5243C33.4948 10.0581 34.1268 9.79633 34.7862 9.79633C35.4454 9.79633 36.0775 10.0589 36.5427 10.5243C36.8583 10.839 37.1989 11.1796 37.5136 11.4952C37.979 11.9605 38.2416 12.5925 38.2416 13.2517C38.2416 13.9111 37.9798 14.5431 37.5136 15.0084L31.4728 21.0491ZM3.31235 4.96944H2.4843C2.02701 4.96944 1.65596 5.34049 1.65596 5.79749V35.6142C1.65596 36.0714 2.02701 36.4425 2.4843 36.4425H25.6746C26.1318 36.4425 26.5029 36.0714 26.5029 35.6142V34.7861H5.79664C4.42423 34.7861 3.31192 33.6738 3.31192 32.3014L3.31235 4.96944ZM29.8165 13.737V8.28193H25.6751C24.3027 8.28193 23.1904 7.16963 23.1904 5.79721V1.6561H5.79735C5.578 1.6561 5.36669 1.74318 5.21195 1.89875C5.0561 2.05377 4.9693 2.2648 4.9693 2.48444V32.3011C4.9693 32.7581 5.34034 33.1291 5.79735 33.1291H28.9883C29.2077 33.1291 29.419 33.0423 29.574 32.8865C29.7296 32.7318 29.8167 32.5204 29.8167 32.3011V22.7051L23.4332 29.0883C22.967 29.5547 22.335 29.8165 21.6767 29.8165H19.0494C18.5921 29.8165 18.2211 29.4455 18.2211 28.9882V26.3609C18.2211 25.7026 18.4829 25.0705 18.9493 24.6044L29.8165 13.737ZM19.9309 26.0711L21.9666 28.1069C21.8749 28.1418 21.777 28.1599 21.6769 28.1599H19.8779V26.3609C19.8779 26.2608 19.8959 26.1629 19.9309 26.0711L19.9309 26.0711ZM21.049 24.8471L23.1907 26.9888L33.6152 16.5643L31.4732 14.4223L21.049 24.8471ZM34.786 15.3938L32.644 13.2518L34.2003 11.6955C34.3553 11.5408 34.5663 11.4529 34.786 11.4529C35.0053 11.4529 35.2166 11.5408 35.3714 11.6955L36.3423 12.6664C36.497 12.8211 36.5849 13.0324 36.5849 13.2518C36.5849 13.4714 36.497 13.6825 36.3423 13.8375L34.786 15.3938ZM24.8471 2.82747V5.79749C24.8471 6.25478 25.2181 6.62583 25.6751 6.62583H28.6454L24.8471 2.82747Z" fill="#0F6986"/>
</svg>
