<svg width="24" height="38" viewBox="0 0 24 38" fill="none" xmlns="http://www.w3.org/2000/svg">
<path d="M13.7141 34.9536H10.9709C10.5595 34.9536 10.2852 34.6793 10.2852 34.2678C10.2852 33.8563 10.5595 33.582 10.9709 33.582H13.7141C14.1256 33.582 14.3999 33.8563 14.3999 34.2678C14.3999 34.6793 14.1256 34.9536 13.7141 34.9536Z" fill="#F55D3E"/>
<path d="M20.5028 37.9989H4.1811C2.2609 37.9989 0.683594 36.4216 0.683594 34.5014V3.4975C0.683594 1.57731 2.2609 0 4.1811 0H20.571C22.4226 0 23.9999 1.57731 23.9999 3.4975V34.5696C23.9999 36.4212 22.423 37.9989 20.5028 37.9989ZM4.1811 1.37157C3.01526 1.37157 2.05516 2.33167 2.05516 3.4975V34.5696C2.05516 35.7354 3.01526 36.6955 4.1811 36.6955H20.571C21.7368 36.6955 22.6969 35.7354 22.6969 34.5696V3.4975C22.6283 2.33167 21.6682 1.37157 20.5024 1.37157H4.1811Z" fill="#0F6986"/>
<path d="M17.1426 4.11471H7.5416C7.26728 4.11471 7.06155 3.97755 6.92439 3.70324L5.55282 0.960099C5.41566 0.754364 5.48424 0.48005 5.55282 0.274314C5.68998 0.137157 5.96429 0 6.17003 0H18.5142C18.7199 0 18.9942 0.137157 19.1314 0.342893C19.2685 0.548628 19.2685 0.822942 19.1314 1.02868L17.7598 3.77182C17.6226 3.97755 17.4169 4.11471 17.1426 4.11471ZM7.95307 2.74314H16.7311L17.4169 1.37157H7.26728L7.95307 2.74314Z" fill="#0F6986"/>
<path d="M17.1442 11.384C16.9385 11.384 16.8013 11.3154 16.6641 11.1783C15.4983 10.0124 13.9896 9.32665 12.3437 9.32665C10.6978 9.32665 9.18909 10.0124 8.02326 11.1783C7.74894 11.4526 7.33747 11.4526 7.06316 11.1783C6.78884 10.904 6.78884 10.4925 7.06316 10.2182C8.43473 8.77802 10.3549 8.02366 12.3437 7.95508C14.4011 7.95508 16.2527 8.77802 17.6242 10.2182C17.8986 10.4925 17.8986 10.904 17.6242 11.1783C17.4871 11.3154 17.3499 11.384 17.1442 11.384Z" fill="#F55D3E"/>
<path d="M15.7722 12.7538C15.635 12.7538 15.4293 12.6852 15.2921 12.548C13.6462 10.9707 11.0402 10.9707 9.39435 12.548C9.12004 12.8224 8.70857 12.8224 8.43425 12.548C8.15994 12.2737 8.15994 11.8623 8.43425 11.5879C10.6288 9.53058 14.0577 9.53058 16.2522 11.5879C16.5265 11.8623 16.5265 12.2737 16.2522 12.548C16.115 12.6852 15.9779 12.7538 15.7722 12.7538Z" fill="#F55D3E"/>
<path d="M14.3991 14.1259C14.1934 14.1259 14.0562 14.0573 13.9191 13.9202C13.0276 13.0972 11.656 13.0972 10.7645 13.9202C10.4902 14.1945 10.0787 14.1945 9.80437 13.9202C9.53005 13.6459 9.53005 13.2344 9.80437 12.9601C11.1759 11.5885 13.5076 11.5885 14.8792 12.9601C15.1535 13.2344 15.1535 13.6459 14.8792 13.9202C14.742 14.0573 14.6049 14.1259 14.3991 14.1259Z" fill="#F55D3E"/>
<path d="M12.3418 29.9003C10.833 29.9003 9.59863 28.6659 9.59863 27.1572C9.59863 25.6485 10.833 24.4141 12.3418 24.4141C13.8505 24.4141 15.0849 25.6485 15.0849 27.1572C15.0849 28.6659 13.8505 29.9003 12.3418 29.9003ZM12.3418 25.7856C11.5874 25.7856 10.9702 26.4028 10.9702 27.1572C10.9702 27.9116 11.5874 28.5288 12.3418 28.5288C13.0961 28.5288 13.7133 27.9116 13.7133 27.1572C13.7133 26.4028 13.0961 25.7856 12.3418 25.7856Z" fill="#F55D3E"/>
<path d="M12.342 25.7843C11.9306 25.7843 11.6562 25.51 11.6562 25.0986V17.5549C11.6562 17.1435 11.9306 16.8691 12.342 16.8691H15.0852C15.4966 16.8691 15.771 17.1435 15.771 17.5549C15.771 17.9664 15.4966 18.2407 15.0852 18.2407H13.0278V25.0986C13.0278 25.51 12.7535 25.7843 12.342 25.7843Z" fill="#F55D3E"/>
<path d="M15.0852 20.9809H12.342C11.9306 20.9809 11.6562 20.7066 11.6562 20.2952C11.6562 19.8837 11.9306 19.6094 12.342 19.6094H15.0852C15.4966 19.6094 15.771 19.8837 15.771 20.2952C15.771 20.7066 15.4966 20.9809 15.0852 20.9809Z" fill="#F55D3E"/>
</svg>
