<svg width="39" height="39" viewBox="0 0 39 39" fill="none" xmlns="http://www.w3.org/2000/svg">
<path d="M37.4402 9.35983H36.6602V3.89993C36.6602 3.03951 35.9607 2.33996 35.1003 2.33996H24.3632C23.219 0.915748 21.4657 0 19.5001 0C17.5344 0 15.7812 0.915748 14.637 2.33996H3.89993C3.03951 2.33996 2.33996 3.03951 2.33996 3.89993V9.35983H1.55997C0.699554 9.35983 0 10.0594 0 10.9198V32.7594C0 33.6198 0.699554 34.3194 1.55997 34.3194H14.095C14.4749 36.962 16.7532 38.9993 19.4996 38.9993C22.2459 38.9993 24.5242 36.962 24.9041 34.3194H37.4391C38.2996 34.3194 38.9991 33.6198 38.9991 32.7594V10.9198C38.9991 10.0594 38.2996 9.35983 37.4391 9.35983H37.4402ZM3.90082 30.4194V29.6395H13.2606C13.691 29.6395 14.0406 29.2899 14.0406 28.8595C14.0406 28.4291 13.691 28.0795 13.2606 28.0795H3.90082V27.2995H17.1606C18.021 27.2995 18.7206 27.9991 18.7206 28.8595V30.4194H3.90082ZM20.2805 28.8595C20.2805 27.9991 20.9801 27.2995 21.8405 27.2995H35.1003V28.0795H25.7404C25.31 28.0795 24.9604 28.4291 24.9604 28.8595C24.9604 29.2899 25.31 29.6395 25.7404 29.6395H35.1003V30.4194H20.2805V28.8595ZM35.1003 3.89993V25.7395H21.8405C21.2694 25.7395 20.7416 25.9049 20.2805 26.1731V12.4257C23.3538 12.0395 25.7404 9.41575 25.7404 6.23974C25.7404 5.41204 25.575 4.62262 25.2811 3.89978L35.1003 3.89993ZM19.5005 1.55997C22.0814 1.55997 24.1805 3.65898 24.1805 6.23989C24.1805 8.82079 22.0814 10.9198 19.5005 10.9198C16.9196 10.9198 14.8206 8.82079 14.8206 6.23989C14.8206 3.65898 16.9196 1.55997 19.5005 1.55997ZM3.90082 3.89993H13.7197C13.4258 4.62281 13.2604 5.41221 13.2604 6.23989C13.2604 9.4159 15.647 12.04 18.7203 12.4258V26.1741C18.2593 25.9053 17.7314 25.7399 17.1604 25.7399H3.90061L3.90082 3.89993ZM37.4402 32.7594H24.1805C23.7501 32.7594 23.4005 33.109 23.4005 33.5394C23.4005 35.6899 21.6511 37.4393 19.5005 37.4393C17.35 37.4393 15.6006 35.6899 15.6006 33.5394C15.6006 33.109 15.251 32.7594 14.8206 32.7594H1.56086V10.9198H2.34085V30.4194C2.34085 31.2799 3.0404 31.9794 3.90082 31.9794H35.1003C35.9607 31.9794 36.6602 31.2799 36.6602 30.4194V10.9198H37.4402V32.7594Z" fill="#0F6986"/>
<path d="M19.5007 10.1409C19.9311 10.1409 20.2807 9.79125 20.2807 9.36087V6.24092C20.2807 5.81054 19.9311 5.46094 19.5007 5.46094C19.0703 5.46094 18.7207 5.81054 18.7207 6.24092V9.36087C18.7207 9.79125 19.0703 10.1409 19.5007 10.1409Z" fill="#F55D3E"/>
<path d="M19.5007 4.6798C19.9311 4.6798 20.2807 4.3302 20.2807 3.89982V3.11983C20.2807 2.68945 19.9311 2.33984 19.5007 2.33984C19.0703 2.33984 18.7207 2.68945 18.7207 3.11983V3.89982C18.7207 4.3302 19.0703 4.6798 19.5007 4.6798Z" fill="#F55D3E"/>
<path d="M6.24092 12.4799H12.4808C12.9112 12.4799 13.2608 12.1303 13.2608 11.6999C13.2608 11.2695 12.9112 10.9199 12.4808 10.9199H6.24092C5.81054 10.9199 5.46094 11.2695 5.46094 11.6999C5.46094 12.1303 5.81054 12.4799 6.24092 12.4799Z" fill="#F55D3E"/>
<path d="M6.24092 17.1596H15.6008C16.0311 17.1596 16.3807 16.81 16.3807 16.3796C16.3807 15.9492 16.0311 15.5996 15.6008 15.5996H6.24092C5.81054 15.5996 5.46094 15.9492 5.46094 16.3796C5.46094 16.81 5.81054 17.1596 6.24092 17.1596Z" fill="#F55D3E"/>
<path d="M6.24092 21.8395H15.6008C16.0311 21.8395 16.3807 21.4899 16.3807 21.0595C16.3807 20.6291 16.0311 20.2795 15.6008 20.2795H6.24092C5.81054 20.2795 5.46094 20.6291 5.46094 21.0595C5.46094 21.4899 5.81054 21.8395 6.24092 21.8395Z" fill="#F55D3E"/>
<path d="M26.5212 12.4799H32.7611C33.1915 12.4799 33.5411 12.1303 33.5411 11.6999C33.5411 11.2695 33.1915 10.9199 32.7611 10.9199H26.5212C26.0908 10.9199 25.7412 11.2695 25.7412 11.6999C25.7412 12.1303 26.0908 12.4799 26.5212 12.4799Z" fill="#F55D3E"/>
<path d="M32.7599 15.5996H23.4001C22.9697 15.5996 22.6201 15.9492 22.6201 16.3796C22.6201 16.81 22.9697 17.1596 23.4001 17.1596H32.7599C33.1903 17.1596 33.5399 16.81 33.5399 16.3796C33.5399 15.9492 33.1903 15.5996 32.7599 15.5996Z" fill="#F55D3E"/>
<path d="M32.7599 20.2795H23.4001C22.9697 20.2795 22.6201 20.6291 22.6201 21.0595C22.6201 21.4899 22.9697 21.8395 23.4001 21.8395H32.7599C33.1903 21.8395 33.5399 21.4899 33.5399 21.0595C33.5399 20.6291 33.1903 20.2795 32.7599 20.2795Z" fill="#F55D3E"/>
</svg>
